<mxfile host="Electron" modified="2025-10-29T10:58:07.479Z" agent="Mozilla/5.0 (X11; Linux x86_64) AppleWebKit/537.36 (KHTML, like Gecko) draw.io/24.4.6 Chrome/124.0.6367.207 Electron/30.0.6 Safari/537.36" etag="MHKE4wL0sHS99Gxmxn2Z" version="24.4.6" type="device">
  <diagram name="Page-1" id="xvsjrBg518Ci0xwEjrOT">
    <mxGraphModel dx="989" dy="576" grid="0" gridSize="10" guides="1" tooltips="1" connect="1" arrows="1" fold="1" page="1" pageScale="1" pageWidth="1169" pageHeight="1654" math="0" shadow="0">
      <root>
        <mxCell id="0" />
        <mxCell id="1" parent="0" />
        <mxCell id="IgHkun0ajR1VyrA4tikO-1" value="&lt;font style=&quot;font-size: 30px;&quot;&gt;AUTOMI&lt;/font&gt;" style="text;html=1;align=center;verticalAlign=middle;whiteSpace=wrap;rounded=0;" parent="1" vertex="1">
          <mxGeometry x="525" y="70" width="60" height="30" as="geometry" />
        </mxCell>
        <mxCell id="7grZRcROBMetwkhv7Y2--2" style="edgeStyle=orthogonalEdgeStyle;rounded=0;orthogonalLoop=1;jettySize=auto;html=1;exitX=1;exitY=0.5;exitDx=0;exitDy=0;endSize=3;" edge="1" parent="1" source="7grZRcROBMetwkhv7Y2--1">
          <mxGeometry relative="1" as="geometry">
            <mxPoint x="391.33333333333337" y="337.66666666666663" as="targetPoint" />
          </mxGeometry>
        </mxCell>
        <mxCell id="7grZRcROBMetwkhv7Y2--9" style="edgeStyle=orthogonalEdgeStyle;rounded=0;orthogonalLoop=1;jettySize=auto;html=1;exitX=0.5;exitY=0;exitDx=0;exitDy=0;entryX=0;entryY=1;entryDx=0;entryDy=0;dashed=1;endSize=0;" edge="1" parent="1" source="7grZRcROBMetwkhv7Y2--1" target="7grZRcROBMetwkhv7Y2--8">
          <mxGeometry relative="1" as="geometry" />
        </mxCell>
        <mxCell id="7grZRcROBMetwkhv7Y2--1" value="Load Amazon &lt;b&gt;Dataset&lt;/b&gt;" style="rounded=0;whiteSpace=wrap;html=1;" vertex="1" parent="1">
          <mxGeometry x="230" y="315" width="100" height="45" as="geometry" />
        </mxCell>
        <mxCell id="7grZRcROBMetwkhv7Y2--21" style="edgeStyle=orthogonalEdgeStyle;rounded=0;orthogonalLoop=1;jettySize=auto;html=1;exitX=0.5;exitY=0;exitDx=0;exitDy=0;dashed=1;endSize=1;" edge="1" parent="1" source="7grZRcROBMetwkhv7Y2--3">
          <mxGeometry relative="1" as="geometry">
            <mxPoint x="441.20000000000005" y="291.20000000000005" as="targetPoint" />
          </mxGeometry>
        </mxCell>
        <mxCell id="7grZRcROBMetwkhv7Y2--23" style="edgeStyle=orthogonalEdgeStyle;rounded=0;orthogonalLoop=1;jettySize=auto;html=1;exitX=1;exitY=0.5;exitDx=0;exitDy=0;entryX=0;entryY=0.5;entryDx=0;entryDy=0;endSize=1;" edge="1" parent="1" source="7grZRcROBMetwkhv7Y2--3" target="7grZRcROBMetwkhv7Y2--22">
          <mxGeometry relative="1" as="geometry" />
        </mxCell>
        <mxCell id="7grZRcROBMetwkhv7Y2--3" value="Preprocess + &lt;b&gt;Tokenize&lt;/b&gt;" style="rounded=0;whiteSpace=wrap;html=1;" vertex="1" parent="1">
          <mxGeometry x="391" y="315" width="100" height="45" as="geometry" />
        </mxCell>
        <mxCell id="7grZRcROBMetwkhv7Y2--5" value="text" style="rounded=0;whiteSpace=wrap;html=1;fillColor=#dae8fc;strokeColor=#6c8ebf;" vertex="1" parent="1">
          <mxGeometry x="247" y="257" width="31" height="19" as="geometry" />
        </mxCell>
        <mxCell id="7grZRcROBMetwkhv7Y2--6" value="label" style="rounded=0;whiteSpace=wrap;html=1;fillColor=#dae8fc;strokeColor=#6c8ebf;" vertex="1" parent="1">
          <mxGeometry x="278" y="257" width="31" height="19" as="geometry" />
        </mxCell>
        <mxCell id="7grZRcROBMetwkhv7Y2--7" value="..." style="rounded=0;whiteSpace=wrap;html=1;fillColor=#dae8fc;strokeColor=#6c8ebf;" vertex="1" parent="1">
          <mxGeometry x="247" y="276" width="31" height="19" as="geometry" />
        </mxCell>
        <mxCell id="7grZRcROBMetwkhv7Y2--8" value="0" style="rounded=0;whiteSpace=wrap;html=1;fillColor=#dae8fc;strokeColor=#6c8ebf;" vertex="1" parent="1">
          <mxGeometry x="278" y="276" width="31" height="19" as="geometry" />
        </mxCell>
        <mxCell id="7grZRcROBMetwkhv7Y2--10" value="text" style="rounded=0;whiteSpace=wrap;html=1;fillColor=#dae8fc;strokeColor=#6c8ebf;" vertex="1" parent="1">
          <mxGeometry x="380" y="252" width="31" height="19" as="geometry" />
        </mxCell>
        <mxCell id="7grZRcROBMetwkhv7Y2--11" value="label" style="rounded=0;whiteSpace=wrap;html=1;fillColor=#dae8fc;strokeColor=#6c8ebf;" vertex="1" parent="1">
          <mxGeometry x="411" y="252" width="31" height="19" as="geometry" />
        </mxCell>
        <mxCell id="7grZRcROBMetwkhv7Y2--12" value="..." style="rounded=0;whiteSpace=wrap;html=1;fillColor=#dae8fc;strokeColor=#6c8ebf;" vertex="1" parent="1">
          <mxGeometry x="380" y="271" width="31" height="19" as="geometry" />
        </mxCell>
        <mxCell id="7grZRcROBMetwkhv7Y2--13" value="0" style="rounded=0;whiteSpace=wrap;html=1;fillColor=#dae8fc;strokeColor=#6c8ebf;" vertex="1" parent="1">
          <mxGeometry x="411" y="271" width="31" height="19" as="geometry" />
        </mxCell>
        <mxCell id="7grZRcROBMetwkhv7Y2--17" value="ids" style="rounded=0;whiteSpace=wrap;html=1;fillColor=#fff2cc;strokeColor=#d6b656;" vertex="1" parent="1">
          <mxGeometry x="442" y="252" width="31" height="19" as="geometry" />
        </mxCell>
        <mxCell id="7grZRcROBMetwkhv7Y2--18" value="mask" style="rounded=0;whiteSpace=wrap;html=1;fillColor=#fff2cc;strokeColor=#d6b656;" vertex="1" parent="1">
          <mxGeometry x="473" y="252" width="31" height="19" as="geometry" />
        </mxCell>
        <mxCell id="7grZRcROBMetwkhv7Y2--19" value="131,..." style="rounded=0;whiteSpace=wrap;html=1;fillColor=#fff2cc;strokeColor=#d6b656;" vertex="1" parent="1">
          <mxGeometry x="442" y="271" width="31" height="19" as="geometry" />
        </mxCell>
        <mxCell id="7grZRcROBMetwkhv7Y2--20" value="1,1,0,..." style="rounded=0;whiteSpace=wrap;html=1;fillColor=#fff2cc;strokeColor=#d6b656;" vertex="1" parent="1">
          <mxGeometry x="473" y="271" width="31" height="19" as="geometry" />
        </mxCell>
        <mxCell id="7grZRcROBMetwkhv7Y2--28" style="edgeStyle=orthogonalEdgeStyle;rounded=0;orthogonalLoop=1;jettySize=auto;html=1;exitX=0.5;exitY=0;exitDx=0;exitDy=0;endSize=1;dashed=1;" edge="1" parent="1" source="7grZRcROBMetwkhv7Y2--22">
          <mxGeometry relative="1" as="geometry">
            <mxPoint x="592.0769230769231" y="282.8461538461538" as="targetPoint" />
          </mxGeometry>
        </mxCell>
        <mxCell id="7grZRcROBMetwkhv7Y2--33" style="edgeStyle=orthogonalEdgeStyle;rounded=0;orthogonalLoop=1;jettySize=auto;html=1;exitX=1;exitY=0.5;exitDx=0;exitDy=0;entryX=0;entryY=0.5;entryDx=0;entryDy=0;endSize=1;" edge="1" parent="1" source="7grZRcROBMetwkhv7Y2--22" target="7grZRcROBMetwkhv7Y2--32">
          <mxGeometry relative="1" as="geometry" />
        </mxCell>
        <mxCell id="7grZRcROBMetwkhv7Y2--22" value="Training" style="rounded=0;whiteSpace=wrap;html=1;" vertex="1" parent="1">
          <mxGeometry x="542" y="315" width="100" height="45" as="geometry" />
        </mxCell>
        <mxCell id="7grZRcROBMetwkhv7Y2--24" value="" style="endArrow=classic;html=1;rounded=0;endSize=0;" edge="1" parent="1">
          <mxGeometry width="50" height="50" relative="1" as="geometry">
            <mxPoint x="317" y="281" as="sourcePoint" />
            <mxPoint x="326" y="275" as="targetPoint" />
          </mxGeometry>
        </mxCell>
        <mxCell id="7grZRcROBMetwkhv7Y2--25" value="" style="endArrow=classic;html=1;rounded=0;endSize=0;" edge="1" parent="1">
          <mxGeometry width="50" height="50" relative="1" as="geometry">
            <mxPoint x="318" y="287" as="sourcePoint" />
            <mxPoint x="326" y="292" as="targetPoint" />
          </mxGeometry>
        </mxCell>
        <mxCell id="7grZRcROBMetwkhv7Y2--26" value="&lt;font style=&quot;font-size: 4px;&quot;&gt;1 : Positive&lt;/font&gt;" style="text;html=1;align=center;verticalAlign=middle;whiteSpace=wrap;rounded=0;" vertex="1" parent="1">
          <mxGeometry x="328" y="269" width="26" height="7" as="geometry" />
        </mxCell>
        <mxCell id="7grZRcROBMetwkhv7Y2--27" value="&lt;font style=&quot;font-size: 4px;&quot;&gt;0 : Negative&lt;/font&gt;" style="text;html=1;align=center;verticalAlign=middle;whiteSpace=wrap;rounded=0;" vertex="1" parent="1">
          <mxGeometry x="328" y="288" width="26" height="7" as="geometry" />
        </mxCell>
        <mxCell id="7grZRcROBMetwkhv7Y2--30" value="" style="shape=cylinder3;whiteSpace=wrap;html=1;boundedLbl=1;backgroundOutline=1;size=15;" vertex="1" parent="1">
          <mxGeometry x="562.5" y="247" width="59" height="36" as="geometry" />
        </mxCell>
        <mxCell id="7grZRcROBMetwkhv7Y2--31" value="&lt;font style=&quot;font-size: 6px;&quot;&gt;Distilbert&lt;/font&gt;" style="text;html=1;align=center;verticalAlign=middle;whiteSpace=wrap;rounded=0;" vertex="1" parent="1">
          <mxGeometry x="578" y="252" width="28" height="12" as="geometry" />
        </mxCell>
        <mxCell id="7grZRcROBMetwkhv7Y2--35" style="edgeStyle=orthogonalEdgeStyle;rounded=0;orthogonalLoop=1;jettySize=auto;html=1;exitX=1;exitY=0.5;exitDx=0;exitDy=0;entryX=0;entryY=0.5;entryDx=0;entryDy=0;endSize=1;" edge="1" parent="1" source="7grZRcROBMetwkhv7Y2--32" target="7grZRcROBMetwkhv7Y2--34">
          <mxGeometry relative="1" as="geometry" />
        </mxCell>
        <mxCell id="7grZRcROBMetwkhv7Y2--32" value="Evaluation" style="rounded=0;whiteSpace=wrap;html=1;" vertex="1" parent="1">
          <mxGeometry x="667" y="315" width="100" height="45" as="geometry" />
        </mxCell>
        <mxCell id="7grZRcROBMetwkhv7Y2--34" value="Inference" style="rounded=0;whiteSpace=wrap;html=1;" vertex="1" parent="1">
          <mxGeometry x="802" y="315" width="100" height="45" as="geometry" />
        </mxCell>
        <mxCell id="7grZRcROBMetwkhv7Y2--36" style="edgeStyle=orthogonalEdgeStyle;rounded=0;orthogonalLoop=1;jettySize=auto;html=1;exitX=0.5;exitY=0;exitDx=0;exitDy=0;endSize=1;dashed=1;" edge="1" parent="1">
          <mxGeometry relative="1" as="geometry">
            <mxPoint x="716.9069230769231" y="282.8461538461538" as="targetPoint" />
            <mxPoint x="716.83" y="315" as="sourcePoint" />
          </mxGeometry>
        </mxCell>
        <mxCell id="7grZRcROBMetwkhv7Y2--37" value="Accuracy , F1 , ..." style="text;html=1;align=center;verticalAlign=middle;whiteSpace=wrap;rounded=0;" vertex="1" parent="1">
          <mxGeometry x="661" y="256.5" width="112" height="17" as="geometry" />
        </mxCell>
        <mxCell id="7grZRcROBMetwkhv7Y2--40" value="" style="shape=cylinder3;whiteSpace=wrap;html=1;boundedLbl=1;backgroundOutline=1;size=15;" vertex="1" parent="1">
          <mxGeometry x="830" y="257" width="44" height="37" as="geometry" />
        </mxCell>
        <mxCell id="7grZRcROBMetwkhv7Y2--41" value="" style="endArrow=classic;html=1;rounded=0;endSize=3;" edge="1" parent="1">
          <mxGeometry width="50" height="50" relative="1" as="geometry">
            <mxPoint x="788" y="273.5" as="sourcePoint" />
            <mxPoint x="827" y="273.5" as="targetPoint" />
          </mxGeometry>
        </mxCell>
        <mxCell id="7grZRcROBMetwkhv7Y2--42" value="Text" style="edgeLabel;html=1;align=center;verticalAlign=middle;resizable=0;points=[];" vertex="1" connectable="0" parent="7grZRcROBMetwkhv7Y2--41">
          <mxGeometry x="-0.4252" y="1" relative="1" as="geometry">
            <mxPoint as="offset" />
          </mxGeometry>
        </mxCell>
        <mxCell id="7grZRcROBMetwkhv7Y2--43" value="" style="endArrow=classic;html=1;rounded=0;endSize=3;" edge="1" parent="1">
          <mxGeometry width="50" height="50" relative="1" as="geometry">
            <mxPoint x="882" y="273.5" as="sourcePoint" />
            <mxPoint x="921" y="273.5" as="targetPoint" />
          </mxGeometry>
        </mxCell>
        <mxCell id="7grZRcROBMetwkhv7Y2--44" value="Label" style="edgeLabel;html=1;align=center;verticalAlign=middle;resizable=0;points=[];" vertex="1" connectable="0" parent="7grZRcROBMetwkhv7Y2--43">
          <mxGeometry x="-0.4252" y="1" relative="1" as="geometry">
            <mxPoint as="offset" />
          </mxGeometry>
        </mxCell>
        <mxCell id="7grZRcROBMetwkhv7Y2--46" style="edgeStyle=orthogonalEdgeStyle;rounded=0;orthogonalLoop=1;jettySize=auto;html=1;exitX=0.5;exitY=0;exitDx=0;exitDy=0;entryX=0.44;entryY=0.997;entryDx=0;entryDy=0;entryPerimeter=0;dashed=1;endSize=1;" edge="1" parent="1" source="7grZRcROBMetwkhv7Y2--34" target="7grZRcROBMetwkhv7Y2--40">
          <mxGeometry relative="1" as="geometry" />
        </mxCell>
      </root>
    </mxGraphModel>
  </diagram>
</mxfile>
